<svg xmlns="http://www.w3.org/2000/svg" xmlns:xlink="http://www.w3.org/1999/xlink" zoomAndPan="magnify" preserveAspectRatio="xMidYMid meet" version="1.0" viewBox="4.87 50.15 241.98 47.85"><defs><g/><clipPath id="a9a12640b9"><path d="M 12 50.148438 L 55 50.148438 L 55 98 L 12 98 Z M 12 50.148438 " clip-rule="nonzero"/></clipPath><clipPath id="66fe924f55"><path d="M 4.867188 63 L 30 63 L 30 94 L 4.867188 94 Z M 4.867188 63 " clip-rule="nonzero"/></clipPath></defs><path fill="#ff1616" d="M 70.457031 66.1875 C 72.164062 67.554688 76.292969 72.136719 73.710938 75.890625 C 72.84375 77.148438 68.820312 80.226562 64.933594 83.199219 C 55.140625 90.691406 50.210938 94.785156 50.183594 97.554688 L 33.011719 97.554688 C 34.730469 97.113281 36.195312 96.242188 37.402344 94.941406 C 37.707031 94.5625 37.90625 94.132812 38 93.65625 C 38.09375 93.179688 38.070312 92.707031 37.933594 92.242188 C 37.761719 91.660156 37.554688 91.066406 37.355469 90.496094 C 36.152344 87.0625 35.207031 84.351562 40.050781 81.9375 C 44.191406 79.601562 47.796875 76.625 50.867188 73 C 52.410156 71.253906 55.785156 67.164062 56.375 64.167969 C 57.554688 63.824219 58.753906 63.609375 59.980469 63.523438 C 61.203125 63.433594 62.421875 63.476562 63.636719 63.652344 C 64.851562 63.828125 66.035156 64.128906 67.183594 64.554688 C 68.335938 64.984375 69.425781 65.527344 70.457031 66.1875 Z M 70.457031 66.1875 " fill-opacity="1" fill-rule="nonzero"/><g clip-path="url(#a9a12640b9)"><path fill="#ff1616" d="M 37.363281 50.203125 C 38.320312 50.207031 39.273438 50.289062 40.21875 50.453125 C 41.164062 50.617188 42.089844 50.855469 42.992188 51.171875 C 43.898438 51.488281 44.769531 51.878906 45.609375 52.339844 C 46.449219 52.804688 47.246094 53.332031 47.996094 53.925781 C 48.746094 54.519531 49.441406 55.171875 50.085938 55.882812 C 50.726562 56.59375 51.304688 57.351562 51.820312 58.160156 C 52.332031 58.964844 52.777344 59.808594 53.148438 60.6875 C 53.523438 61.570312 53.820312 62.472656 54.042969 63.40625 C 53.992188 64.621094 52.4375 67.585938 49.058594 71.414062 C 46.195312 74.800781 42.835938 77.589844 38.972656 79.78125 C 32.226562 83.144531 33.875 87.847656 35.078125 91.285156 C 35.277344 91.855469 35.464844 92.394531 35.617188 92.914062 C 35.683594 93.136719 35.632812 93.328125 35.46875 93.496094 C 34.734375 94.46875 32.242188 95.472656 28.804688 96.171875 C 25.410156 96.835938 21.984375 97.179688 18.523438 97.203125 C 18.191406 97.132812 17.859375 97.054688 17.542969 96.96875 C 14.777344 95.542969 13.285156 94.175781 12.976562 92.792969 C 12.707031 91.574219 13.320312 90.058594 14.910156 88.023438 C 15.988281 86.636719 18.535156 85.0625 21.230469 83.398438 C 26.523438 80.132812 32.519531 76.429688 31.566406 71.527344 C 31.359375 70.019531 30.890625 68.597656 30.15625 67.265625 C 29.421875 65.929688 28.472656 64.769531 27.308594 63.785156 C 25.519531 62.445312 23.515625 61.628906 21.296875 61.335938 C 21.601562 60.527344 21.964844 59.742188 22.386719 58.984375 C 22.808594 58.230469 23.289062 57.507812 23.820312 56.824219 C 24.355469 56.140625 24.9375 55.5 25.566406 54.902344 C 26.195312 54.308594 26.867188 53.761719 27.582031 53.269531 C 28.296875 52.773438 29.042969 52.335938 29.824219 51.953125 C 30.601562 51.570312 31.40625 51.25 32.238281 50.992188 C 33.066406 50.730469 33.910156 50.535156 34.769531 50.402344 C 35.628906 50.269531 36.492188 50.203125 37.363281 50.203125 Z M 37.363281 50.203125 " fill-opacity="1" fill-rule="nonzero"/></g><g clip-path="url(#66fe924f55)"><path fill="#ff1616" d="M 4.867188 80.46875 C 4.867188 79.445312 4.960938 78.429688 5.144531 77.421875 C 5.328125 76.414062 5.601562 75.429688 5.964844 74.46875 C 6.328125 73.511719 6.773438 72.59375 7.300781 71.710938 C 7.828125 70.832031 8.429688 70.007812 9.109375 69.234375 C 9.785156 68.464844 10.527344 67.757812 11.328125 67.121094 C 12.132812 66.480469 12.988281 65.921875 13.894531 65.433594 C 14.800781 64.949219 15.742188 64.546875 16.71875 64.230469 C 17.699219 63.914062 18.695312 63.6875 19.714844 63.546875 C 25.398438 64.164062 28.148438 66.617188 29.191406 71.984375 C 29.828125 75.253906 24.585938 78.492188 19.957031 81.351562 C 17.070312 83.132812 14.34375 84.816406 13.003906 86.542969 C 10.949219 89.175781 10.203125 91.238281 10.601562 93.210938 C 9.699219 92.410156 8.894531 91.523438 8.179688 90.550781 C 7.46875 89.582031 6.863281 88.546875 6.371094 87.449219 C 5.878906 86.351562 5.503906 85.214844 5.25 84.039062 C 4.996094 82.863281 4.867188 81.671875 4.867188 80.46875 Z M 4.867188 80.46875 " fill-opacity="1" fill-rule="nonzero"/></g><path fill="#ff1616" d="M 62.871094 97.554688 L 53.371094 97.554688 C 53.117188 97.546875 52.871094 97.503906 52.628906 97.429688 C 52.742188 97.039062 53.382812 95.777344 56.855469 92.722656 C 59.570312 90.339844 63.203125 87.5625 66.410156 85.109375 C 71.5 81.210938 74.671875 78.746094 75.707031 77.246094 C 76.429688 76.210938 76.84375 75.058594 76.9375 73.796875 C 77.203125 74.410156 77.429688 75.039062 77.621094 75.683594 C 77.8125 76.324219 77.964844 76.972656 78.082031 77.632812 C 78.195312 78.292969 78.269531 78.957031 78.304688 79.625 C 78.339844 80.292969 78.339844 80.960938 78.296875 81.628906 C 78.253906 82.296875 78.171875 82.960938 78.050781 83.621094 C 77.929688 84.277344 77.769531 84.925781 77.570312 85.566406 C 77.375 86.207031 77.140625 86.832031 76.867188 87.445312 C 76.597656 88.058594 76.292969 88.652344 75.949219 89.230469 C 75.609375 89.804688 75.234375 90.359375 74.828125 90.894531 C 74.421875 91.425781 73.984375 91.933594 73.519531 92.414062 C 73.050781 92.894531 72.558594 93.347656 72.039062 93.773438 C 71.519531 94.195312 70.976562 94.589844 70.410156 94.949219 C 69.84375 95.308594 69.257812 95.636719 68.652344 95.925781 C 68.050781 96.21875 67.429688 96.476562 66.796875 96.695312 C 66.160156 96.914062 65.515625 97.09375 64.859375 97.238281 C 64.203125 97.382812 63.542969 97.488281 62.871094 97.554688 Z M 62.871094 97.554688 " fill-opacity="1" fill-rule="nonzero"/><g fill="#000000" fill-opacity="1"><g transform="translate(82.677684, 88.750123)"><g><path d="M 9.945312 0.445312 C 14.773438 0.445312 17.726562 -2.011719 17.726562 -5.925781 C 17.726562 -10.546875 13.546875 -11.484375 10.179688 -12.242188 C 7.910156 -12.765625 5.976562 -13.210938 5.976562 -14.644531 C 5.976562 -15.898438 7.285156 -16.421875 8.613281 -16.421875 C 10.574219 -16.421875 11.929688 -15.402344 12.398438 -13.703125 L 17.230469 -13.703125 C 16.601562 -18.144531 12.894531 -20.335938 8.71875 -20.335938 C 4.648438 -20.335938 1.332031 -18.378906 1.332031 -14.253906 C 1.332031 -9.867188 5.324219 -8.980469 8.667969 -8.222656 C 11.015625 -7.699219 13.027344 -7.257812 13.027344 -5.691406 C 13.027344 -4.125 11.511719 -3.472656 9.917969 -3.472656 C 8.117188 -3.472656 6.316406 -4.152344 5.636719 -6.761719 L 0.808594 -6.761719 C 1.175781 -1.175781 6.1875 0.445312 9.945312 0.445312 Z M 9.945312 0.445312 "/></g></g></g><g fill="#000000" fill-opacity="1"><g transform="translate(101.263622, 88.750123)"><g><path d="M 5.820312 0 L 5.820312 -8.328125 C 5.820312 -9.605469 6.003906 -10.335938 6.371094 -10.832031 C 6.761719 -11.382812 7.414062 -11.589844 8.328125 -11.589844 C 9.058594 -11.589844 9.582031 -11.433594 9.945312 -11.042969 C 10.390625 -10.574219 10.574219 -9.789062 10.574219 -8.328125 L 10.574219 0 L 14.957031 0 L 14.957031 -8.273438 C 14.957031 -10.101562 14.957031 -11.277344 14.382812 -12.554688 C 13.785156 -13.914062 12.53125 -15.113281 9.605469 -15.113281 C 8.039062 -15.113281 6.8125 -14.695312 5.820312 -13.210938 L 5.820312 -19.917969 L 1.4375 -19.917969 L 1.4375 0 Z M 5.820312 0 "/></g></g></g><g fill="#000000" fill-opacity="1"><g transform="translate(117.552421, 88.750123)"><g><path d="M 8.613281 0.3125 C 13.3125 0.3125 16.394531 -2.792969 16.394531 -7.492188 C 16.394531 -12.007812 13.261719 -15.113281 8.613281 -15.113281 C 3.96875 -15.113281 0.835938 -12.035156 0.835938 -7.492188 C 0.835938 -2.765625 3.992188 0.3125 8.613281 0.3125 Z M 8.613281 -3.445312 C 6.65625 -3.445312 5.351562 -5.011719 5.351562 -7.492188 C 5.351562 -9.816406 6.65625 -11.382812 8.613281 -11.382812 C 10.597656 -11.382812 11.824219 -9.789062 11.824219 -7.492188 C 11.824219 -5.0625 10.597656 -3.445312 8.613281 -3.445312 Z M 8.613281 -3.445312 "/></g></g></g><g fill="#000000" fill-opacity="1"><g transform="translate(134.780964, 88.750123)"><g><path d="M 9.503906 0 L 9.503906 -3.550781 L 7.859375 -3.550781 C 7.101562 -3.550781 6.96875 -4.019531 6.96875 -4.4375 L 6.96875 -11.382812 L 9.527344 -11.382812 L 9.527344 -14.800781 L 6.96875 -14.800781 L 6.96875 -19.917969 L 2.585938 -19.917969 L 2.585938 -14.800781 L 0.546875 -14.800781 L 0.546875 -11.382812 L 2.585938 -11.382812 L 2.585938 -2.949219 C 2.585938 -1.070312 3.835938 0 6.003906 0 Z M 9.503906 0 "/></g></g></g><g fill="#000000" fill-opacity="1"><g transform="translate(145.170297, 88.750123)"><g><path d="M 8.613281 0.3125 C 13.3125 0.3125 16.394531 -2.792969 16.394531 -7.492188 C 16.394531 -12.007812 13.261719 -15.113281 8.613281 -15.113281 C 3.96875 -15.113281 0.835938 -12.035156 0.835938 -7.492188 C 0.835938 -2.765625 3.992188 0.3125 8.613281 0.3125 Z M 8.613281 -3.445312 C 6.65625 -3.445312 5.351562 -5.011719 5.351562 -7.492188 C 5.351562 -9.816406 6.65625 -11.382812 8.613281 -11.382812 C 10.597656 -11.382812 11.824219 -9.789062 11.824219 -7.492188 C 11.824219 -5.0625 10.597656 -3.445312 8.613281 -3.445312 Z M 8.613281 -3.445312 "/></g></g></g><g fill="#000000" fill-opacity="1"><g transform="translate(162.39884, 88.750123)"><g/></g></g><g fill="#000000" fill-opacity="1"><g transform="translate(169.185845, 88.750123)"><g><path d="M 10.78125 0.445312 C 16.027344 0.445312 19.082031 -2.453125 19.605469 -6.761719 L 14.488281 -6.761719 C 14.175781 -4.671875 12.660156 -3.734375 10.675781 -3.734375 C 7.519531 -3.734375 5.769531 -6.1875 5.769531 -9.972656 C 5.769531 -13.730469 7.519531 -16.160156 10.675781 -16.160156 C 12.660156 -16.160156 14.199219 -15.21875 14.488281 -13.183594 L 19.605469 -13.183594 C 19.082031 -17.464844 16.027344 -20.335938 10.78125 -20.335938 C 3.96875 -20.335938 0.835938 -15.53125 0.835938 -9.972656 C 0.835938 -4.410156 3.96875 0.445312 10.78125 0.445312 Z M 10.78125 0.445312 "/></g></g></g><g fill="#000000" fill-opacity="1"><g transform="translate(189.520742, 88.750123)"><g><path d="M 7.699219 0 L 7.699219 -3.550781 L 6.605469 -3.550781 C 6.265625 -3.550781 5.742188 -3.65625 5.742188 -4.464844 L 5.742188 -19.917969 L 1.359375 -19.917969 L 1.359375 -2.949219 C 1.359375 -1.070312 2.585938 0 4.75 0 Z M 7.699219 0 "/></g></g></g><g fill="#000000" fill-opacity="1"><g transform="translate(197.821767, 88.750123)"><g><path d="M 8.613281 0.3125 C 13.3125 0.3125 16.394531 -2.792969 16.394531 -7.492188 C 16.394531 -12.007812 13.261719 -15.113281 8.613281 -15.113281 C 3.96875 -15.113281 0.835938 -12.035156 0.835938 -7.492188 C 0.835938 -2.765625 3.992188 0.3125 8.613281 0.3125 Z M 8.613281 -3.445312 C 6.65625 -3.445312 5.351562 -5.011719 5.351562 -7.492188 C 5.351562 -9.816406 6.65625 -11.382812 8.613281 -11.382812 C 10.597656 -11.382812 11.824219 -9.789062 11.824219 -7.492188 C 11.824219 -5.0625 10.597656 -3.445312 8.613281 -3.445312 Z M 8.613281 -3.445312 "/></g></g></g><g fill="#000000" fill-opacity="1"><g transform="translate(215.05031, 88.750123)"><g><path d="M 6.683594 0.3125 C 8.457031 0.3125 9.582031 -0.261719 10.46875 -1.59375 L 10.46875 0 L 14.855469 0 L 14.855469 -14.800781 L 10.46875 -14.800781 L 10.46875 -6.472656 C 10.46875 -5.246094 10.3125 -4.488281 9.917969 -3.96875 C 9.527344 -3.472656 8.929688 -3.210938 7.960938 -3.210938 C 7.203125 -3.210938 6.683594 -3.394531 6.34375 -3.757812 C 5.898438 -4.230469 5.71875 -5.011719 5.71875 -6.472656 L 5.71875 -14.800781 L 1.332031 -14.800781 L 1.332031 -6.527344 C 1.332031 -4.125 1.4375 -3.261719 1.90625 -2.246094 C 2.664062 -0.546875 4.253906 0.3125 6.683594 0.3125 Z M 6.683594 0.3125 "/></g></g></g><g fill="#000000" fill-opacity="1"><g transform="translate(231.339109, 88.750123)"><g><path d="M 7.335938 0.3125 C 8.902344 0.3125 10.128906 -0.105469 11.121094 -1.59375 L 11.121094 0 L 15.507812 0 L 15.507812 -19.917969 L 11.121094 -19.917969 L 11.121094 -13.210938 C 10.128906 -14.695312 8.902344 -15.113281 7.335938 -15.113281 C 3.550781 -15.113281 0.886719 -11.929688 0.886719 -7.414062 C 0.886719 -2.871094 3.550781 0.3125 7.335938 0.3125 Z M 8.5625 -3.417969 C 6.605469 -3.417969 5.324219 -5.0625 5.324219 -7.414062 C 5.324219 -9.738281 6.605469 -11.382812 8.5625 -11.382812 C 10.492188 -11.382812 11.800781 -9.789062 11.800781 -7.414062 C 11.800781 -5.011719 10.492188 -3.417969 8.5625 -3.417969 Z M 8.5625 -3.417969 "/></g></g></g></svg>